# xmcd
#
# Track frame offsets: 
#        150
#        10826
#        29059
#        44401
#        57834
#        79475
#        90348
#        110049
#        120230
#        137137
#        157125
#        176573
#
# Disc length: 2510 seconds
#
# Revision: 0
# Processed by: cddbd v1.5.2PL0 Copyright (c) Steve Scherf et al.
# Submitted via: ExactAudioCopy v1.1
#
DISCID=9f09cc0c
DTITLE=The Duets - Waltzing Through Ireland
DYEAR=1900
DGENRE=Country
TTITLE0=Once More
TTITLE1=The Story I Tell You Is True
TTITLE2=All Over Again
TTITLE3=Waltzing Through Ireland
TTITLE4=I'll Be Home Soon
TTITLE5=Kicking Each Others Hearts Around
TTITLE6=My Old Sligo Hom
TTITLE7=Do You Think You Could Love Me Again
TTITLE8=Lights of Rosslare Harbou
TTITLE9=An Irish Harvest Day
TTITLE10=Until You Have Walked In My Shoes
TTITLE11=This World Is Not My Home
EXTD=
EXTT0=
EXTT1=
EXTT2=
EXTT3=
EXTT4=
EXTT5=
EXTT6=
EXTT7=
EXTT8=
EXTT9=
EXTT10=
EXTT11=
PLAYORDER=
